<svg xmlns="http://www.w3.org/2000/svg" viewBox="0 0 400 240" width="800" height="480" shape-rendering="crispEdges"><rect width="400" height="158" fill="#967b69"/><rect y="158" width="400" height="82" fill="#684b37"/><rect x="22" y="23" width="121" height="91" fill="#352519"/><rect x="31" y="30" width="103" height="75" fill="#b77b70"/><rect x="81" y="30" width="4" height="75" fill="#557c7e"/><rect x="31" y="65" width="103" height="4" fill="#557c7e"/><rect x="20" y="31" width="9" height="68" fill="#e5cf9f"/><rect x="139" y="32" width="7" height="66" fill="#e5cf9f"/><rect x="23" y="177" width="111" height="40" fill="#352519"/><rect x="31" y="181" width="95" height="28" fill="#c3aa7d"/><rect x="76" y="183" width="48" height="22" fill="#668399"/><rect x="149" y="177" width="102" height="28" fill="#66754e"/><rect x="157" y="173" width="86" height="36" fill="#66754e"/><rect x="298" y="29" width="79" height="10" fill="#533824"/><rect x="301" y="39" width="5" height="79" fill="#352519"/><rect x="369" y="39" width="5" height="79" fill="#352519"/><rect x="295" y="175" width="73" height="7" fill="#765236"/><rect x="302" y="182" width="5" height="25" fill="#352519"/><rect x="356" y="182" width="5" height="25" fill="#352519"/><rect x="122" y="138" width="8" height="5" fill="#668399"/><rect x="124" y="137" width="4" height="1" fill="#e5cf9f"/><rect x="91" y="137" width="8" height="5" fill="#d39a4a"/><rect x="93" y="136" width="4" height="1" fill="#e5cf9f"/><rect x="306" y="144" width="8" height="5" fill="#765236"/><rect x="308" y="143" width="4" height="1" fill="#e5cf9f"/><rect x="39" y="132" width="8" height="5" fill="#e5cf9f"/><rect x="41" y="131" width="4" height="1" fill="#e5cf9f"/><rect x="306" y="167" width="8" height="5" fill="#a85c4d"/><rect x="308" y="166" width="4" height="1" fill="#e5cf9f"/><rect x="316" y="145" width="8" height="5" fill="#d7c493"/><rect x="318" y="144" width="4" height="1" fill="#e5cf9f"/><rect x="71" y="150" width="23" height="13" fill="#8b5d3b"/><rect x="72" y="139" width="14" height="12" fill="#8b5d3b"/><rect x="69" y="141" width="5" height="8" fill="#5f3c29"/><rect x="84" y="140" width="5" height="8" fill="#5f3c29"/><rect x="81" y="144" width="8" height="5" fill="#d9bd8d"/></svg>
